<?xml version="1.0" encoding="UTF-8" standalone="no"?>
<!-- Created with Inkscape (http://www.inkscape.org/) -->

<svg
   width="250"
   height="250"
   viewBox="0 0 66.145833 66.145832"
   version="1.1"
   id="svg5"
   inkscape:version="1.2.2 (732a01da63, 2022-12-09)"
   sodipodi:docname="logo.svg"
   inkscape:export-filename="logo.png"
   inkscape:export-xdpi="96"
   inkscape:export-ydpi="96"
   xmlns:inkscape="http://www.inkscape.org/namespaces/inkscape"
   xmlns:sodipodi="http://sodipodi.sourceforge.net/DTD/sodipodi-0.dtd"
   xmlns="http://www.w3.org/2000/svg"
   xmlns:svg="http://www.w3.org/2000/svg">
  <sodipodi:namedview
     id="namedview7"
     pagecolor="#ffffff"
     bordercolor="#000000"
     borderopacity="0.25"
     inkscape:showpageshadow="2"
     inkscape:pageopacity="0.0"
     inkscape:pagecheckerboard="0"
     inkscape:deskcolor="#d1d1d1"
     inkscape:document-units="mm"
     showgrid="false"
     inkscape:zoom="1.2392752"
     inkscape:cx="151.70158"
     inkscape:cy="88.761562"
     inkscape:window-width="2560"
     inkscape:window-height="1009"
     inkscape:window-x="-8"
     inkscape:window-y="-8"
     inkscape:window-maximized="1"
     inkscape:current-layer="layer1" />
  <defs
     id="defs2" />
  <g
     inkscape:label="Layer 1"
     inkscape:groupmode="layer"
     id="layer1">
    <rect
       style="fill:#35495e;fill-opacity:1;stroke-width:0.264583;stroke-linecap:square;stroke-miterlimit:2.2"
       id="rect234"
       width="66.145836"
       height="66.145836"
       x="8.8413555e-07"
       y="0"
       ry="0.23702881" />
    <text
       xml:space="preserve"
       style="font-size:16.9333px;font-family:Poppins;-inkscape-font-specification:Poppins;fill:#4b4e5d;fill-opacity:1;stroke-width:0.264583;stroke-linecap:square;stroke-miterlimit:2.2"
       x="21.437201"
       y="36.533821"
       id="text896"><tspan
         sodipodi:role="line"
         id="tspan894"
         style="stroke-width:0.264583;fill:#4b4e5d;fill-opacity:1"
         x="21.437201"
         y="36.533821" /></text>
    <path
       id="path364"
       style="stroke-width:0.264583;fill:#42b883;fill-opacity:1"
       d="M 7.2409017 11.626164 L 33.212443 56.610498 L 59.183984 11.626164 L 48.796505 11.626164 L 39.210527 11.626164 L 37.000326 15.45332 A 0.832114 0.832114 0 0 1 37.052002 15.459521 A 11.640234 11.640234 0 0 1 40.871407 17.609778 A 0.832114 0.832114 0 0 1 41.165963 18.241781 L 41.178365 21.738725 L 44.281018 23.507092 A 0.832114 0.832114 0 0 1 44.685645 24.068815 A 11.074396 11.074396 0 0 1 44.688745 28.387415 A 0.832114 0.832114 0 0 1 44.284119 28.949137 L 41.181466 30.717505 L 41.165963 34.21755 A 0.832114 0.832114 0 0 1 40.871407 34.849036 A 11.659997 11.659997 0 0 1 37.056653 37.004976 A 0.84147527 0.84147527 0 0 1 36.788969 37.048901 A 0.82275264 0.82275264 0 0 1 36.383309 36.944515 L 33.250684 35.192167 L 30.117542 36.947099 A 0.832114 0.832114 0 0 1 29.445748 37.008077 A 11.640234 11.640234 0 0 1 25.626343 34.858337 A 0.832114 0.832114 0 0 1 25.331787 34.225818 L 25.319385 30.72784 L 22.216732 28.959473 A 0.832114 0.832114 0 0 1 21.812105 28.39775 A 11.074396 11.074396 0 0 1 21.812105 24.075016 A 0.832114 0.832114 0 0 1 22.216732 23.513293 L 25.319385 21.744926 L 25.334888 18.244881 A 0.832114 0.832114 0 0 1 25.629443 17.613912 A 11.641275 11.641275 0 0 1 29.429211 15.461589 L 27.21436 11.626164 L 7.2409017 11.626164 z M 32.999536 22.078239 A 4.1605699 4.1605699 0 0 0 33.250684 30.391943 A 4.1605699 4.1605699 0 0 0 37.411153 26.231474 A 4.1605699 4.1605699 0 0 0 32.999536 22.078239 z " />
  </g>
</svg>
