<?xml version="1.0" encoding="UTF-8" standalone="no"?>
<!-- Created with Inkscape (http://www.inkscape.org/) -->

<svg
   width="250"
   height="250"
   viewBox="0 0 66.145833 66.145832"
   version="1.1"
   id="svg5"
   inkscape:version="1.2.2 (732a01da63, 2022-12-09)"
   sodipodi:docname="logo.svg"
   inkscape:export-filename="logo.png"
   inkscape:export-xdpi="96"
   inkscape:export-ydpi="96"
   xmlns:inkscape="http://www.inkscape.org/namespaces/inkscape"
   xmlns:sodipodi="http://sodipodi.sourceforge.net/DTD/sodipodi-0.dtd"
   xmlns="http://www.w3.org/2000/svg"
   xmlns:svg="http://www.w3.org/2000/svg">
  <sodipodi:namedview
     id="namedview7"
     pagecolor="#ffffff"
     bordercolor="#000000"
     borderopacity="0.25"
     inkscape:showpageshadow="2"
     inkscape:pageopacity="0.0"
     inkscape:pagecheckerboard="0"
     inkscape:deskcolor="#d1d1d1"
     inkscape:document-units="mm"
     showgrid="false"
     inkscape:zoom="2.4785503"
     inkscape:cx="103.68964"
     inkscape:cy="133.5458"
     inkscape:window-width="2560"
     inkscape:window-height="1009"
     inkscape:window-x="-8"
     inkscape:window-y="-8"
     inkscape:window-maximized="1"
     inkscape:current-layer="layer1" />
  <defs
     id="defs2" />
  <g
     inkscape:label="Layer 1"
     inkscape:groupmode="layer"
     id="layer1">
    <rect
       style="fill:#35495e;fill-opacity:1;stroke-width:0.264583;stroke-linecap:square;stroke-miterlimit:2.2"
       id="rect234"
       width="66.145836"
       height="66.145836"
       x="8.8413555e-07"
       y="0"
       ry="0.23702881" />
    <text
       xml:space="preserve"
       style="font-size:16.9333px;font-family:Poppins;-inkscape-font-specification:Poppins;fill:#4b4e5d;fill-opacity:1;stroke-width:0.264583;stroke-linecap:square;stroke-miterlimit:2.2"
       x="21.437201"
       y="36.533821"
       id="text896"><tspan
         sodipodi:role="line"
         id="tspan894"
         style="stroke-width:0.264583;fill:#4b4e5d;fill-opacity:1"
         x="21.437201"
         y="36.533821" /></text>
    <path
       id="path364"
       style="fill:#42b883;fill-opacity:1;stroke-width:0.246096"
       d="M 8.8421401,12.693656 32.998944,54.534752 57.155748,12.693656 h -9.661663 -8.916167 l -2.055766,3.559737 a 0.77397082,0.77397082 0 0 1 0.04807,0.0058 10.826884,10.826884 0 0 1 3.552527,2.00001 0.77397082,0.77397082 0 0 1 0.273974,0.587842 l 0.01154,3.252598 2.885858,1.644804 a 0.77397082,0.77397082 0 0 1 0.376354,0.522474 10.300583,10.300583 0 0 1 0.0029,4.016841 0.77397082,0.77397082 0 0 1 -0.376353,0.522473 l -2.885858,1.644805 -0.01442,3.255482 a 0.77397082,0.77397082 0 0 1 -0.273974,0.587362 10.845266,10.845266 0 0 1 -3.548201,2.005296 0.78267798,0.78267798 0 0 1 -0.24898,0.04086 0.76526358,0.76526358 0 0 1 -0.377315,-0.09709 l -2.913736,-1.629904 -2.914217,1.632308 a 0.77397082,0.77397082 0 0 1 -0.624853,0.05672 10.826884,10.826884 0 0 1 -3.552527,-1.999529 0.77397082,0.77397082 0 0 1 -0.273974,-0.588322 l -0.01154,-3.253561 -2.885858,-1.644804 a 0.77397082,0.77397082 0 0 1 -0.376354,-0.522473 10.300583,10.300583 0 0 1 0,-4.020687 0.77397082,0.77397082 0 0 1 0.376354,-0.522473 l 2.885858,-1.644804 0.01442,-3.255483 a 0.77397082,0.77397082 0 0 1 0.273973,-0.58688 10.827852,10.827852 0 0 1 3.534263,-2.001932 l -2.06009,-3.567428 z m 23.9587739,9.721746 a 3.869854,3.869854 0 0 0 0.233599,7.732792 3.869854,3.869854 0 0 0 3.86976,-3.86976 3.869854,3.869854 0 0 0 -4.103359,-3.863032 z" />
  </g>
</svg>
